M48
; DRILL file {KiCad 7.0.7} date Fri Oct 13 18:50:02 2023
; FORMAT={-:-/ absolute / metric / decimal}
; #@! TF.CreationDate,2023-10-13T18:50:02+02:00
; #@! TF.GenerationSoftware,Kicad,Pcbnew,7.0.7
; #@! TF.FileFunction,MixedPlating,1,2
FMAT,2
METRIC
; #@! TA.AperFunction,Plated,PTH,ViaDrill
T1C0.350
; #@! TA.AperFunction,Plated,PTH,ViaDrill
T2C0.500
; #@! TA.AperFunction,Plated,PTH,ComponentDrill
T3C0.750
; #@! TA.AperFunction,Plated,PTH,ComponentDrill
T4C0.900
; #@! TA.AperFunction,Plated,PTH,ComponentDrill
T5C1.000
; #@! TA.AperFunction,Plated,PTH,ComponentDrill
T6C1.600
; #@! TA.AperFunction,NonPlated,NPTH,ComponentDrill
T7C2.200
%
G90
G05
T1
X116.586Y-90.678
X116.586Y-94.234
X121.412Y-54.61
X121.904Y-60.182
X123.444Y-51.308
X123.444Y-57.404
X124.206Y-73.406
X124.968Y-68.326
X128.778Y-90.424
X129.54Y-59.69
X131.826Y-70.104
X134.112Y-60.96
X134.112Y-109.22
X135.636Y-51.816
X137.16Y-68.58
X139.446Y-59.69
X140.462Y-61.976
X140.462Y-71.628
X142.494Y-73.406
X149.606Y-60.465
X149.606Y-111.76
X149.86Y-55.118
X150.114Y-52.324
X150.876Y-67.31
X151.384Y-82.296
X152.146Y-50.038
X155.702Y-56.896
T2
X106.68Y-48.26
X109.22Y-48.26
X111.76Y-48.26
X114.3Y-48.26
X116.84Y-48.26
X119.38Y-48.26
X121.92Y-48.26
X124.46Y-48.26
X147.32Y-48.26
X149.86Y-48.26
X152.4Y-48.26
X154.94Y-48.26
X157.48Y-48.26
X160.02Y-48.26
X162.56Y-48.26
X165.1Y-48.26
T3
X131.445Y-40.005
X131.445Y-41.91
X131.445Y-43.815
X140.335Y-40.005
X140.335Y-41.91
X140.335Y-43.815
T4
X106.68Y-59.685
X106.68Y-62.225
X165.1Y-59.695
X165.1Y-62.235
T5
X111.76Y-66.31
X111.76Y-68.85
X111.76Y-71.39
X111.76Y-73.93
X111.76Y-76.47
X111.76Y-79.01
X111.76Y-81.55
X111.76Y-84.09
X111.76Y-86.63
X111.76Y-89.17
X111.76Y-91.71
X111.76Y-94.25
X111.76Y-96.79
X111.76Y-99.33
X111.76Y-101.87
X111.76Y-104.41
X111.76Y-106.95
X111.76Y-109.49
X111.76Y-112.03
X111.76Y-114.57
X111.76Y-117.11
X111.76Y-119.65
X111.76Y-122.19
X111.76Y-124.73
X111.76Y-127.27
X111.76Y-129.81
X111.76Y-132.35
X111.76Y-134.89
X111.76Y-137.43
X111.76Y-139.97
X111.76Y-142.51
X111.76Y-145.05
X130.89Y-94.488
X132.715Y-47.63
X132.715Y-50.17
X139.065Y-47.503
X139.065Y-50.043
X140.89Y-94.488
X160.02Y-66.31
X160.02Y-68.85
X160.02Y-71.39
X160.02Y-73.93
X160.02Y-76.47
X160.02Y-79.01
X160.02Y-81.55
X160.02Y-84.09
X160.02Y-86.63
X160.02Y-89.17
X160.02Y-91.71
X160.02Y-94.25
X160.02Y-96.79
X160.02Y-99.33
X160.02Y-101.87
X160.02Y-104.41
X160.02Y-106.95
X160.02Y-109.49
X160.02Y-112.03
X160.02Y-114.57
X160.02Y-117.11
X160.02Y-119.65
X160.02Y-122.19
X160.02Y-124.73
X160.02Y-127.27
X160.02Y-129.81
X160.02Y-132.35
X160.02Y-134.89
X160.02Y-137.43
X160.02Y-139.97
X160.02Y-142.51
X160.02Y-145.05
T6
X112.268Y-53.848
X117.602Y-68.58
X120.396Y-76.708
X120.396Y-86.868
X120.396Y-98.044
X120.396Y-116.84
X120.396Y-129.032
X128.905Y-84.455
X131.445Y-104.14
X136.525Y-79.375
X142.875Y-84.455
X148.59Y-139.065
X148.59Y-144.145
X151.384Y-76.708
X151.384Y-86.868
X151.384Y-98.044
X151.384Y-129.032
X151.892Y-116.84
X153.67Y-139.065
X153.67Y-144.145
X154.178Y-68.58
X160.25Y-54.864
T7
X107.25Y-53.0
X107.25Y-148.5
X164.5Y-53.0
X164.5Y-148.5
T0
M30
