%TF.GenerationSoftware,KiCad,Pcbnew,7.0.7*%
%TF.CreationDate,2023-10-13T18:50:11+02:00*%
%TF.ProjectId,Cable_Monitor,4361626c-655f-44d6-9f6e-69746f722e6b,rev?*%
%TF.SameCoordinates,Original*%
%TF.FileFunction,Soldermask,Top*%
%TF.FilePolarity,Negative*%
%FSLAX46Y46*%
G04 Gerber Fmt 4.6, Leading zero omitted, Abs format (unit mm)*
G04 Created by KiCad (PCBNEW 7.0.7) date 2023-10-13 18:50:11*
%MOMM*%
%LPD*%
G01*
G04 APERTURE LIST*
G04 Aperture macros list*
%AMRoundRect*
0 Rectangle with rounded corners*
0 $1 Rounding radius*
0 $2 $3 $4 $5 $6 $7 $8 $9 X,Y pos of 4 corners*
0 Add a 4 corners polygon primitive as box body*
4,1,4,$2,$3,$4,$5,$6,$7,$8,$9,$2,$3,0*
0 Add four circle primitives for the rounded corners*
1,1,$1+$1,$2,$3*
1,1,$1+$1,$4,$5*
1,1,$1+$1,$6,$7*
1,1,$1+$1,$8,$9*
0 Add four rect primitives between the rounded corners*
20,1,$1+$1,$2,$3,$4,$5,0*
20,1,$1+$1,$4,$5,$6,$7,0*
20,1,$1+$1,$6,$7,$8,$9,0*
20,1,$1+$1,$8,$9,$2,$3,0*%
G04 Aperture macros list end*
%ADD10C,2.200000*%
%ADD11R,1.700000X1.700000*%
%ADD12O,1.700000X1.700000*%
%ADD13C,3.000000*%
%ADD14R,2.000000X0.650000*%
%ADD15RoundRect,0.150000X-0.587500X-0.150000X0.587500X-0.150000X0.587500X0.150000X-0.587500X0.150000X0*%
%ADD16RoundRect,0.150000X-0.825000X-0.150000X0.825000X-0.150000X0.825000X0.150000X-0.825000X0.150000X0*%
%ADD17RoundRect,0.250000X0.337500X0.475000X-0.337500X0.475000X-0.337500X-0.475000X0.337500X-0.475000X0*%
%ADD18RoundRect,0.250000X0.475000X-0.337500X0.475000X0.337500X-0.475000X0.337500X-0.475000X-0.337500X0*%
%ADD19RoundRect,0.250000X-0.350000X-0.450000X0.350000X-0.450000X0.350000X0.450000X-0.350000X0.450000X0*%
%ADD20R,1.550000X1.300000*%
%ADD21R,1.800000X1.800000*%
%ADD22C,1.800000*%
%ADD23RoundRect,0.309400X-0.340600X0.340600X-0.340600X-0.340600X0.340600X-0.340600X0.340600X0.340600X0*%
%ADD24O,1.300000X1.300000*%
%ADD25RoundRect,0.250000X0.350000X0.450000X-0.350000X0.450000X-0.350000X-0.450000X0.350000X-0.450000X0*%
%ADD26RoundRect,0.250000X-0.337500X-0.475000X0.337500X-0.475000X0.337500X0.475000X-0.337500X0.475000X0*%
%ADD27RoundRect,0.250000X-0.450000X0.350000X-0.450000X-0.350000X0.450000X-0.350000X0.450000X0.350000X0*%
%ADD28RoundRect,0.250000X-0.475000X0.337500X-0.475000X-0.337500X0.475000X-0.337500X0.475000X0.337500X0*%
%ADD29R,2.000000X1.500000*%
%ADD30R,2.000000X3.800000*%
%ADD31RoundRect,0.250000X0.450000X-0.350000X0.450000X0.350000X-0.450000X0.350000X-0.450000X-0.350000X0*%
%ADD32RoundRect,0.250000X-0.412500X-0.650000X0.412500X-0.650000X0.412500X0.650000X-0.412500X0.650000X0*%
%ADD33RoundRect,0.309400X0.340600X-0.340600X0.340600X0.340600X-0.340600X0.340600X-0.340600X-0.340600X0*%
%ADD34R,0.450000X1.380000*%
%ADD35R,1.650000X1.300000*%
%ADD36R,1.425000X1.550000*%
%ADD37R,1.800000X1.900000*%
%ADD38R,1.000000X1.900000*%
%ADD39RoundRect,0.250000X0.650000X-0.412500X0.650000X0.412500X-0.650000X0.412500X-0.650000X-0.412500X0*%
%ADD40R,1.120000X1.220000*%
%ADD41R,2.000000X2.000000*%
%ADD42C,2.000000*%
G04 APERTURE END LIST*
D10*
%TO.C,H4*%
X164500000Y-53000000D03*
%TD*%
%TO.C,H3*%
X107250000Y-53000000D03*
%TD*%
%TO.C,H2*%
X107250000Y-148500000D03*
%TD*%
%TO.C,H1*%
X164500000Y-148500000D03*
%TD*%
D11*
%TO.C,HS_Left*%
X132715000Y-50170000D03*
D12*
X132715000Y-47630000D03*
%TD*%
D11*
%TO.C,HS_right*%
X139065000Y-50043000D03*
D12*
X139065000Y-47503000D03*
%TD*%
D13*
%TO.C,TP14*%
X151384000Y-129032000D03*
%TD*%
D14*
%TO.C,U1*%
X133985000Y-135570000D03*
X133985000Y-134620000D03*
X133985000Y-133670000D03*
X130565000Y-133670000D03*
X130565000Y-134620000D03*
X130565000Y-135570000D03*
%TD*%
D15*
%TO.C,Q1*%
X139270500Y-104079000D03*
X139270500Y-105979000D03*
X141145500Y-105029000D03*
%TD*%
D16*
%TO.C,U5*%
X118429000Y-52451000D03*
X118429000Y-53721000D03*
X118429000Y-54991000D03*
X118429000Y-56261000D03*
X123379000Y-56261000D03*
X123379000Y-54991000D03*
X123379000Y-53721000D03*
X123379000Y-52451000D03*
%TD*%
D17*
%TO.C,C20*%
X138246500Y-72517000D03*
X136171500Y-72517000D03*
%TD*%
D18*
%TO.C,C14*%
X154432000Y-57933500D03*
X154432000Y-55858500D03*
%TD*%
D19*
%TO.C,R22*%
X138749000Y-69977000D03*
X140749000Y-69977000D03*
%TD*%
D16*
%TO.C,U6*%
X146877000Y-52451000D03*
X146877000Y-53721000D03*
X146877000Y-54991000D03*
X146877000Y-56261000D03*
X151827000Y-56261000D03*
X151827000Y-54991000D03*
X151827000Y-53721000D03*
X151827000Y-52451000D03*
%TD*%
D20*
%TO.C,SW1*%
X131910000Y-117765000D03*
X139870000Y-117765000D03*
X131910000Y-122265000D03*
X139870000Y-122265000D03*
%TD*%
D19*
%TO.C,R14*%
X144226000Y-58928000D03*
X146226000Y-58928000D03*
%TD*%
D13*
%TO.C,TP19*%
X128905000Y-84455000D03*
%TD*%
D18*
%TO.C,C10*%
X129794000Y-55139500D03*
X129794000Y-53064500D03*
%TD*%
D13*
%TO.C,TP12*%
X117602000Y-68580000D03*
%TD*%
%TO.C,TP16*%
X151384000Y-76708000D03*
%TD*%
D21*
%TO.C,LED2*%
X165100000Y-62235000D03*
D22*
X165100000Y-59695000D03*
%TD*%
D13*
%TO.C,TP7*%
X136525000Y-79375000D03*
%TD*%
D23*
%TO.C,U3*%
X131445000Y-40005000D03*
D24*
X131445000Y-41910000D03*
X131445000Y-43815000D03*
%TD*%
D13*
%TO.C,TP20*%
X142875000Y-84455000D03*
%TD*%
%TO.C,TP4*%
X153670000Y-139065000D03*
%TD*%
D25*
%TO.C,R20*%
X134145000Y-72517000D03*
X132145000Y-72517000D03*
%TD*%
D26*
%TO.C,C13*%
X124184500Y-60198000D03*
X126259500Y-60198000D03*
%TD*%
D18*
%TO.C,C17*%
X128778000Y-67331500D03*
X128778000Y-65256500D03*
%TD*%
D27*
%TO.C,R17*%
X131621000Y-57166000D03*
X131621000Y-59166000D03*
%TD*%
D19*
%TO.C,R21*%
X136144000Y-60706000D03*
X138144000Y-60706000D03*
%TD*%
D27*
%TO.C,R6*%
X130683000Y-109744000D03*
X130683000Y-111744000D03*
%TD*%
D28*
%TO.C,C2*%
X128016000Y-107653000D03*
X128016000Y-109728000D03*
%TD*%
%TO.C,C9*%
X137414000Y-41761500D03*
X137414000Y-43836500D03*
%TD*%
D27*
%TO.C,R3*%
X135763000Y-104156000D03*
X135763000Y-106156000D03*
%TD*%
D18*
%TO.C,C16*%
X142240000Y-63394500D03*
X142240000Y-61319500D03*
%TD*%
D13*
%TO.C,TP13*%
X154178000Y-68580000D03*
%TD*%
D29*
%TO.C,U2*%
X134840000Y-126605000D03*
X134840000Y-128905000D03*
D30*
X141140000Y-128905000D03*
D29*
X134840000Y-131205000D03*
%TD*%
D13*
%TO.C,TP2*%
X120396000Y-116840000D03*
%TD*%
D31*
%TO.C,R7*%
X111760000Y-61960000D03*
X111760000Y-59960000D03*
%TD*%
D27*
%TO.C,R4*%
X136652000Y-109744000D03*
X136652000Y-111744000D03*
%TD*%
%TO.C,R25*%
X128778000Y-61230000D03*
X128778000Y-63230000D03*
%TD*%
%TO.C,R15*%
X126049000Y-51578000D03*
X126049000Y-53578000D03*
%TD*%
D28*
%TO.C,C19*%
X131621000Y-61827500D03*
X131621000Y-63902500D03*
%TD*%
D32*
%TO.C,C5*%
X129442500Y-130048000D03*
X132567500Y-130048000D03*
%TD*%
D27*
%TO.C,R24*%
X146304000Y-67961000D03*
X146304000Y-69961000D03*
%TD*%
D33*
%TO.C,U4*%
X140335000Y-43815000D03*
D24*
X140335000Y-41910000D03*
X140335000Y-40005000D03*
%TD*%
D13*
%TO.C,TP9*%
X112268000Y-53848000D03*
%TD*%
D21*
%TO.C,LED1*%
X106680000Y-59685000D03*
D22*
X106680000Y-62225000D03*
%TD*%
D27*
%TO.C,R12*%
X115759000Y-54245000D03*
X115759000Y-56245000D03*
%TD*%
D28*
%TO.C,C24*%
X148844000Y-63478500D03*
X148844000Y-65553500D03*
%TD*%
D13*
%TO.C,TP10*%
X160250000Y-54864000D03*
%TD*%
%TO.C,TP11*%
X120396000Y-129032000D03*
%TD*%
D26*
%TO.C,C15*%
X154348500Y-60198000D03*
X156423500Y-60198000D03*
%TD*%
D27*
%TO.C,R16*%
X154432000Y-51451000D03*
X154432000Y-53451000D03*
%TD*%
D13*
%TO.C,TP5*%
X148590000Y-139065000D03*
%TD*%
D34*
%TO.C,J1*%
X134590000Y-147130000D03*
X135240000Y-147130000D03*
X135890000Y-147130000D03*
X136540000Y-147130000D03*
X137190000Y-147130000D03*
D35*
X132515000Y-149790000D03*
D36*
X133402500Y-147215000D03*
D37*
X134740000Y-149790000D03*
D38*
X137440000Y-149790000D03*
D36*
X138377500Y-147215000D03*
D35*
X139265000Y-149790000D03*
%TD*%
D13*
%TO.C,TP18*%
X151384000Y-98044000D03*
%TD*%
D39*
%TO.C,C1*%
X146812000Y-126022500D03*
X146812000Y-122897500D03*
%TD*%
D13*
%TO.C,TP22*%
X151384000Y-86868000D03*
%TD*%
D28*
%TO.C,C11*%
X156972000Y-52810500D03*
X156972000Y-54885500D03*
%TD*%
%TO.C,C8*%
X134493000Y-39983500D03*
X134493000Y-42058500D03*
%TD*%
D40*
%TO.C,D2*%
X139472000Y-114300000D03*
X136372000Y-114300000D03*
%TD*%
D13*
%TO.C,TP21*%
X120396000Y-86868000D03*
%TD*%
D25*
%TO.C,R1*%
X145780000Y-107696000D03*
X143780000Y-107696000D03*
%TD*%
D13*
%TO.C,TP3*%
X153670000Y-144145000D03*
%TD*%
D27*
%TO.C,R23*%
X143764000Y-65548000D03*
X143764000Y-67548000D03*
%TD*%
D40*
%TO.C,D4*%
X146965000Y-128905000D03*
X143865000Y-128905000D03*
%TD*%
D27*
%TO.C,R11*%
X144272000Y-54372000D03*
X144272000Y-56372000D03*
%TD*%
D41*
%TO.C,BZ1*%
X130890000Y-94488000D03*
D42*
X140890000Y-94488000D03*
%TD*%
D27*
%TO.C,R26*%
X146304000Y-63373000D03*
X146304000Y-65373000D03*
%TD*%
D19*
%TO.C,R10*%
X119904000Y-58801000D03*
X121904000Y-58801000D03*
%TD*%
D13*
%TO.C,TP6*%
X148590000Y-144145000D03*
%TD*%
D19*
%TO.C,R9*%
X149941000Y-58928000D03*
X151941000Y-58928000D03*
%TD*%
D26*
%TO.C,C18*%
X134201500Y-69977000D03*
X136276500Y-69977000D03*
%TD*%
D25*
%TO.C,R5*%
X132572000Y-114046000D03*
X130572000Y-114046000D03*
%TD*%
D31*
%TO.C,R8*%
X160020000Y-61960000D03*
X160020000Y-59960000D03*
%TD*%
D18*
%TO.C,C12*%
X125984000Y-57933500D03*
X125984000Y-55858500D03*
%TD*%
D27*
%TO.C,R18*%
X135177000Y-56785000D03*
X135177000Y-58785000D03*
%TD*%
D28*
%TO.C,C23*%
X126238000Y-63732500D03*
X126238000Y-65807500D03*
%TD*%
D32*
%TO.C,C4*%
X130712500Y-141290000D03*
X133837500Y-141290000D03*
%TD*%
D13*
%TO.C,TP8*%
X131445000Y-104140000D03*
%TD*%
D27*
%TO.C,R19*%
X131621000Y-66437000D03*
X131621000Y-68437000D03*
%TD*%
D40*
%TO.C,D1*%
X144500000Y-114046000D03*
X147600000Y-114046000D03*
%TD*%
D13*
%TO.C,TP17*%
X120396000Y-98044000D03*
%TD*%
D32*
%TO.C,C3*%
X130712500Y-137795000D03*
X133837500Y-137795000D03*
%TD*%
D19*
%TO.C,R13*%
X114251000Y-58801000D03*
X116251000Y-58801000D03*
%TD*%
D18*
%TO.C,C7*%
X143764000Y-126513500D03*
X143764000Y-124438500D03*
%TD*%
D27*
%TO.C,R2*%
X140716000Y-109744000D03*
X140716000Y-111744000D03*
%TD*%
D13*
%TO.C,TP1*%
X151892000Y-116840000D03*
%TD*%
D40*
%TO.C,D3*%
X127550000Y-144145000D03*
X130650000Y-144145000D03*
%TD*%
D18*
%TO.C,C22*%
X148844000Y-69998500D03*
X148844000Y-67923500D03*
%TD*%
D13*
%TO.C,TP15*%
X120396000Y-76708000D03*
%TD*%
D16*
%TO.C,U7*%
X134669000Y-63373000D03*
X134669000Y-64643000D03*
X134669000Y-65913000D03*
X134669000Y-67183000D03*
X139619000Y-67183000D03*
X139619000Y-65913000D03*
X139619000Y-64643000D03*
X139619000Y-63373000D03*
%TD*%
D17*
%TO.C,C6*%
X141567500Y-133985000D03*
X139492500Y-133985000D03*
%TD*%
D18*
%TO.C,C21*%
X143764000Y-71649500D03*
X143764000Y-69574500D03*
%TD*%
D11*
%TO.C,P1*%
X160020000Y-66310000D03*
D12*
X160020000Y-68850000D03*
X160020000Y-71390000D03*
X160020000Y-73930000D03*
X160020000Y-76470000D03*
X160020000Y-79010000D03*
X160020000Y-81550000D03*
X160020000Y-84090000D03*
X160020000Y-86630000D03*
X160020000Y-89170000D03*
X160020000Y-91710000D03*
X160020000Y-94250000D03*
X160020000Y-96790000D03*
X160020000Y-99330000D03*
X160020000Y-101870000D03*
X160020000Y-104410000D03*
X160020000Y-106950000D03*
X160020000Y-109490000D03*
X160020000Y-112030000D03*
X160020000Y-114570000D03*
X160020000Y-117110000D03*
X160020000Y-119650000D03*
X160020000Y-122190000D03*
X160020000Y-124730000D03*
X160020000Y-127270000D03*
X160020000Y-129810000D03*
X160020000Y-132350000D03*
X160020000Y-134890000D03*
X160020000Y-137430000D03*
X160020000Y-139970000D03*
X160020000Y-142510000D03*
X160020000Y-145050000D03*
%TD*%
D11*
%TO.C,P2*%
X111760000Y-66310000D03*
D12*
X111760000Y-68850000D03*
X111760000Y-71390000D03*
X111760000Y-73930000D03*
X111760000Y-76470000D03*
X111760000Y-79010000D03*
X111760000Y-81550000D03*
X111760000Y-84090000D03*
X111760000Y-86630000D03*
X111760000Y-89170000D03*
X111760000Y-91710000D03*
X111760000Y-94250000D03*
X111760000Y-96790000D03*
X111760000Y-99330000D03*
X111760000Y-101870000D03*
X111760000Y-104410000D03*
X111760000Y-106950000D03*
X111760000Y-109490000D03*
X111760000Y-112030000D03*
X111760000Y-114570000D03*
X111760000Y-117110000D03*
X111760000Y-119650000D03*
X111760000Y-122190000D03*
X111760000Y-124730000D03*
X111760000Y-127270000D03*
X111760000Y-129810000D03*
X111760000Y-132350000D03*
X111760000Y-134890000D03*
X111760000Y-137430000D03*
X111760000Y-139970000D03*
X111760000Y-142510000D03*
X111760000Y-145050000D03*
%TD*%
M02*
